<svg viewBox="0 0 300 300" xmlns="http://www.w3.org/2000/svg">
  <circle id="point" cx="0" cy="0" r="1" fill="red"/>
  <g id="main" fill="transparent" stroke="#000" stroke-width="3">
    <path d="M 75 0 Q 90 55, 150 58 q 5 5, -15.75 15.75 t -15.75 15.75 L 0 118.75 
     L 125 130 q 5 5, 0 12.5 t 0 15.5 q -10 -3, -10.5 12.5 T 90 170 Q 50 220, 30 220
     L 0 260 L 30 301" />
     <path d="M 225 0 Q 210 55, 150 58 q -5 5, 15.75 15.75 t 15.75 15.75 L 300 118.75 
     L 175 130 q -5 5, 0 12.5 t 0 15.5 q 10 -3, 10.5 12.5 T 210 170 Q 250 220, 270 220
     L 300 260 L 270 301" /> 
  </g>
  <g id="jup" fill="transparent" stroke="#000">
    <path d="M 150 180 q 7 -6, 7 5 q -5 30, -35 30.5 q -10 1, -10 -8 q 3 -10, 15 -10 q 10 0, 20 10"/>
    <path d="M 150 242.25 q -7 6, -7 -5 q 5 -30, 35 -30.5 q 10 -1, 10 8 q -3 10, -15 10 q -10 0, -20 -10
     L 146 206.5"/>
  </g>
  <g id="triangles" fill="transparent" stroke="#000">
    <path d="M 150 300 L 80 260 L 220 260 Z"/>
    <path d="M 119 282 Q 150 250, 181 282"/>
    <circle cx="150" cy="282" r="10" />
    <path d="M 192 276 l 30 0 l -15 15 l -15 -15"/>
    <path d="M 108 276 l -30 0 l 15 15 l 15 -15"/>
  </g>
  <g id="planet" fill="transparent" stroke="#000">
    <path id="america" d="M 100 0 q 4 2, 4 7 q -8 10, 5 20 q 12 5, 12 15 q 0 7, 15 11.5 q -1 -4, -4 -10
     q -1 0, 4 -4 q 0.5 -1, 0 -6 q 4 -0.5, 4 -8 t 3 -8 q 3 -5, -3 -5 t -10 -2
     q -1 -4, -7 -4 t -18 -7"/>
    <path id="africa" d="M 160 0 q -8 15, 11 15 q 6 2, -2 8 q -4 5, -8 18 q 1 7, 10 0 t 10 -5 q 4 0, 10 -7
     q 10 -15, 14 -30"/>
    <path id="madagascar" d="M 172 45 q 7.5 -1, 13 -6 q 2 -1, 3 1 q -2 4, -14 7 q -5 -0.5, -2 -2"/>
  </g>
</svg>
